<svg xmlns="http://www.w3.org/2000/svg" xmlns:xlink="http://www.w3.org/1999/xlink" width="68" height="68" viewBox="0 0 68 68">
  <defs>
    <linearGradient id="linear-gradient" x1="0.5" x2="0.5" y2="1" gradientUnits="objectBoundingBox">
      <stop offset="0" stop-color="#636c7b"/>
      <stop offset="1" stop-color="#c3966c"/>
    </linearGradient>
  </defs>
  <g id="Group_175491" data-name="Group 175491" transform="translate(-999 -1565)">
    <g id="Ellipse_602" data-name="Ellipse 602" transform="translate(999 1565)" fill="#fff" stroke="#c3966c" stroke-width="1">
      <circle cx="34" cy="34" r="34" stroke="none"/>
      <circle cx="34" cy="34" r="33.5" fill="none"/>
    </g>
    <path id="star" d="M35.087,13.234a1.867,1.867,0,0,0-1.608-1.284l-10.155-.922-4.013-9.4a1.87,1.87,0,0,0-3.44,0l-4.013,9.4L1.7,11.95A1.872,1.872,0,0,0,.637,15.222l7.677,6.731L6.05,31.922a1.87,1.87,0,0,0,2.782,2.022l8.757-5.236,8.755,5.236a1.871,1.871,0,0,0,2.784-2.022l-2.263-9.969,7.677-6.731A1.872,1.872,0,0,0,35.087,13.234ZM17.758,28.606" transform="translate(1015 1581.504)" fill="url(#linear-gradient)"/>
  </g>
</svg>
