<svg xmlns="http://www.w3.org/2000/svg" xmlns:xlink="http://www.w3.org/1999/xlink" width="68" height="68" viewBox="0 0 68 68">
  <defs>
    <linearGradient id="linear-gradient" x1="0.19" y1="0.427" x2="0.87" y2="0.775" gradientUnits="objectBoundingBox">
      <stop offset="0" stop-color="#636c7b"/>
      <stop offset="1" stop-color="#c3966c"/>
    </linearGradient>
  </defs>
  <g id="Group_175494" data-name="Group 175494" transform="translate(-300 -1565)">
    <g id="Ellipse_605" data-name="Ellipse 605" transform="translate(300 1565)" fill="#fff" stroke="#c3966c" stroke-width="1">
      <circle cx="34" cy="34" r="34" stroke="none"/>
      <circle cx="34" cy="34" r="33.5" fill="none"/>
    </g>
    <g id="Group_175429" data-name="Group 175429" transform="translate(-315.473 -453.5)">
      <path id="Subtraction_7" data-name="Subtraction 7" d="M37.293,32.591a.981.981,0,0,1-.924-.656c-.047-.119-1.222-2.977-7.928-6.917a28.69,28.69,0,0,0-13.682-3.7,2.308,2.308,0,0,1-2.1,1.355H11.9l1.144,6.757a1.631,1.631,0,0,1-1.608,1.9H8.775a1.627,1.627,0,0,1-1.608-1.359l-1.236-7.3H4.519a2.3,2.3,0,0,1-2.3-2.3v-.134h-.36A1.859,1.859,0,0,1,0,18.377V14.215a1.861,1.861,0,0,1,1.857-1.858h.36v-.134a2.3,2.3,0,0,1,2.3-2.3h8.145a2.309,2.309,0,0,1,2.1,1.355,28.638,28.638,0,0,0,13.681-3.7C35.276,3.559,36.356.7,36.365.671A.979.979,0,0,1,38.273.98V11.246a2.716,2.716,0,0,1,2.375,2.691v4.718a2.716,2.716,0,0,1-2.375,2.69V31.611a.975.975,0,0,1-.823.967A.925.925,0,0,1,37.293,32.591ZM27.684,10.78a2.956,2.956,0,0,0-2.176.765,2.956,2.956,0,0,0-.765,2.176v5.151a2.677,2.677,0,0,0,2.941,2.94h5.152a2.677,2.677,0,0,0,2.941-2.94V13.72a2.679,2.679,0,0,0-2.946-2.941ZM4.519,11.88a.344.344,0,0,0-.343.343v8.145a.343.343,0,0,0,.343.343h8.145a.343.343,0,0,0,.342-.343V12.224a.343.343,0,0,0-.342-.343Zm25.736,6.892a.458.458,0,0,1-.458-.458V16.754H28.236a.463.463,0,0,1-.458-.463.478.478,0,0,1,.132-.326.486.486,0,0,1,.326-.133H29.8V14.277a.457.457,0,0,1,.915,0v1.555h1.567a.461.461,0,0,1,0,.922H30.713v1.561A.458.458,0,0,1,30.255,18.772Z" transform="translate(627.5 2035)" fill="url(#linear-gradient)"/>
    </g>
  </g>
</svg>
